<svg xmlns="http://www.w3.org/2000/svg" width="256" height="256" viewBox="0 0 100 100"><rect width="100" height="100" rx="20" fill="#aeaeae"></rect><path fill="#fff" d="M43.97 74.66L21.02 50.90L21.02 76.91Q20.48 77.09 19.58 77.31Q18.68 77.54 17.60 77.54L17.60 77.54Q13.64 77.54 13.64 74.21L13.64 74.21L13.64 22.46Q14.09 22.28 15.04 22.05Q15.98 21.83 17.06 21.83L17.06 21.83Q21.02 21.83 21.02 25.16L21.02 25.16L21.02 47.57L45.77 21.92Q48.11 22.01 49.28 23.09Q50.45 24.17 50.45 25.61L50.45 25.61Q50.45 26.78 49.82 27.77Q49.19 28.76 48.02 29.93L48.02 29.93L28.58 49.01Q36.77 57.02 42.76 63.27Q48.74 69.53 53.06 73.40L53.06 73.40Q52.88 75.38 51.85 76.50Q50.81 77.63 49.19 77.63L49.19 77.63Q47.66 77.63 46.45 76.78Q45.23 75.92 43.97 74.66L43.97 74.66ZM77.54 78.17L77.54 78.17Q71.24 78.17 67.33 75.38Q63.41 72.59 63.41 66.11L63.41 66.11L63.41 23.36Q63.86 23.18 64.81 22.96Q65.75 22.73 66.83 22.73L66.83 22.73Q70.61 22.73 70.61 25.97L70.61 25.97L70.61 36.32L85.37 36.32Q85.64 36.77 85.91 37.54Q86.18 38.30 86.18 39.20L86.18 39.20Q86.18 42.26 83.48 42.26L83.48 42.26L70.61 42.26L70.61 65.66Q70.61 69.26 72.64 70.75Q74.66 72.23 78.35 72.23L78.35 72.23Q79.88 72.23 81.77 71.69Q83.66 71.15 84.92 70.43L84.92 70.43Q85.46 70.97 85.91 71.78Q86.36 72.59 86.36 73.67L86.36 73.67Q86.36 75.65 84.02 76.91Q81.68 78.17 77.54 78.17Z"></path></svg>